# xmcd
# Copyright (C) 1995-1998 Ti Kan
#
# Track frame offsets:
#       150
#       17221
#       37199
#       53466
#       73072
#       88721
#       100922
#       118791
#       133976
#       151535
#       168625
#       184286
#       202443
#
# Disc length: 2851 seconds
#
# Revision: 0
# Processed by: cddbd v1.5.2PL0 Copyright (c) Steve Scherf et al.
# Submitted via: CD-Import v1.0
#
DISCID=bf0b210d
DTITLE=Asleep. - In The Village Though We Make Up Numbersfor Cities
DYEAR=2008
DGENRE=
TTITLE0=34
TTITLE1=Crack
TTITLE2=Fear Of Hope
TTITLE3=Smile
TTITLE4=Making The Record
TTITLE5=Kitchen Floor
TTITLE6=Expensive
TTITLE7=Eudamonia
TTITLE8=What If
TTITLE9=Made Up Make-Up Face
TTITLE10=Duffy
TTITLE11=Move
TTITLE12=Time
EXTD=
EXTT0=
EXTT1=
EXTT2=
EXTT3=
EXTT4=
EXTT5=
EXTT6=
EXTT7=
EXTT8=
EXTT9=
EXTT10=
EXTT11=
EXTT12=
PLAYORDER=
